<svg width="276" height="44" viewBox="0 0 276 44" fill="none" xmlns="http://www.w3.org/2000/svg">
<path fill-rule="evenodd" clip-rule="evenodd" d="M252.784 0C265.609 0 276.049 9.82479 276.049 22L252.784 44C265.609 44 276.049 34.1752 276.049 22L252.784 0ZM245.625 42.9188L256.313 32.812H232.501C235.385 37.5598 240.058 41.2265 245.625 42.9188ZM230.215 27.453H261.98L267.747 22L261.98 16.5H230.215C229.718 18.2393 229.469 20.0727 229.469 21.953C229.519 23.8803 229.767 25.7137 230.215 27.453ZM232.501 11.188H256.313L245.625 1.03419C240.058 2.7735 235.385 6.39316 232.501 11.188Z" fill="white"/>
<path fill-rule="evenodd" clip-rule="evenodd" d="M19.0893 32.6708V27.1708H6.41282V6.58105H0V32.6708H19.0893ZM46.3811 22.1409V22.0939C46.3811 20.5896 46.0828 19.1323 45.4863 17.8161C44.8898 16.4999 44.0447 15.3246 42.951 14.3375C41.9071 13.3503 40.6145 12.5981 39.1729 12.034C37.6816 11.4699 36.0908 11.1879 34.4006 11.1879C32.6607 11.1879 31.0699 11.4699 29.5785 12.034C28.0872 12.5981 26.8444 13.3973 25.7507 14.3845C24.6571 15.3717 23.812 16.5469 23.2154 17.8631C22.6189 19.1793 22.3206 20.5896 22.3206 22.1409V22.2349C22.3206 23.7392 22.6189 25.1964 23.2154 26.5127C23.812 27.8289 24.6571 29.0041 25.7507 29.9913C26.7947 30.9785 28.0872 31.7306 29.5288 32.2947C31.0202 32.8588 32.6109 33.1409 34.3011 33.1409C36.0411 33.1409 37.6318 32.8588 39.1232 32.2947C40.6145 31.7306 41.8573 30.9315 42.951 29.9443C44.0447 28.9571 44.8898 27.7819 45.4863 26.4657C46.0828 25.1024 46.3811 23.6922 46.3811 22.1409ZM40.1174 22.2349C40.1174 23.034 39.9683 23.7392 39.7197 24.4443C39.4712 25.1494 39.0735 25.7605 38.5764 26.2776C38.0792 26.7947 37.4827 27.2178 36.7867 27.4999C36.0908 27.7819 35.2457 27.9699 34.3509 27.9699C33.456 27.9699 32.6607 27.8289 31.9647 27.4999C31.2687 27.1708 30.6225 26.7477 30.1254 26.2306C29.5785 25.7135 29.1808 25.0554 28.9323 24.3973C28.634 23.6922 28.5346 22.94 28.5346 22.1879V22.0939C28.5346 21.2947 28.6837 20.5896 28.9323 19.8845C29.1808 19.1793 29.5785 18.5682 30.0756 18.0511C30.5728 17.534 31.1693 17.111 31.8653 16.8289C32.5612 16.5469 33.4063 16.3588 34.3011 16.3588C35.1462 16.3588 35.9416 16.4999 36.6873 16.8289C37.3833 17.158 38.0295 17.5811 38.5764 18.0981C39.1232 18.6152 39.5209 19.2734 39.7694 19.9315C40.0677 20.6366 40.1671 21.3887 40.1671 22.1409V22.2349H40.1174ZM74.2197 27.8759V11.2819H67.9063V14.3375C67.0612 13.4443 65.6196 12.2691 64.4762 11.658C58.0634 8.17934 50.2089 13.9144 50.2089 21.0127V21.1067C50.2089 26.6537 54.3847 30.9315 60.3998 30.9315C63.5814 30.9315 65.9676 29.8033 68.0058 27.4999V28.534C68.0058 32.5298 65.719 34.8802 61.6426 34.8802C58.8091 34.8802 56.572 34.034 54.1362 32.7648L51.9985 37.2306C55.031 38.7349 58.4611 39.6281 61.8415 39.6281C69.9942 39.6281 74.2197 35.9144 74.2197 27.8759ZM67.7572 21.1067C67.7572 24.0212 65.2716 25.9956 62.2392 25.9956C59.157 25.9956 56.5223 24.1152 56.5223 21.1067V21.0127C56.5223 18.0981 59.0576 15.7007 62.09 15.7007C65.1225 15.7007 67.7572 18.0511 67.7572 21.0127V21.1067ZM86.0511 32.6708V11.2819H79.7377V32.6708H86.0511ZM112.05 29.2862L108.372 25.7605C106.88 27.0768 104.842 28.017 102.705 28.017C99.1751 28.017 96.8883 25.0084 96.8883 21.8588V21.7648C96.8883 18.8033 99.1253 15.8887 102.456 15.8887C104.643 15.8887 106.582 16.7349 108.073 18.1922L111.951 14.2434C109.465 11.658 106.135 10.7178 102.506 10.7178C95.9438 10.7178 90.6743 15.6067 90.6743 21.8588V21.9528C90.6743 28.111 95.9438 33.1879 102.456 33.1879C106.284 33.1409 109.465 31.9657 112.05 29.2862Z" fill="white"/>
<path fill-rule="evenodd" clip-rule="evenodd" d="M141.232 16.1234V16.0294C141.232 14.6192 140.983 13.3029 140.486 12.1747C139.989 10.9995 139.243 10.0123 138.299 9.16617C137.354 8.32002 136.161 7.6619 134.819 7.23882C133.427 6.76874 131.886 6.5337 130.146 6.5337H116.525V32.6704H122.938V25.7602H129.549C131.19 25.7602 132.731 25.5722 134.123 25.1491C135.565 24.726 136.807 24.1149 137.851 23.3157C138.895 22.5166 139.74 21.4824 140.387 20.3072C140.884 19.132 141.232 17.7217 141.232 16.1234ZM134.719 16.2175C134.719 17.3927 134.272 18.3798 133.377 19.179C132.482 19.9781 131.24 20.3542 129.649 20.3542H122.838V11.9867H129.5C131.09 11.9867 132.383 12.3628 133.278 13.0679C134.222 13.773 134.67 14.8072 134.67 16.1704V16.2175H134.719ZM151.373 32.6704V6.0166H145.059V32.6704H151.373ZM178.714 32.6704V11.2345H172.401V23.2687C172.401 25.7132 170.661 28.0636 167.877 28.0636C164.596 28.0636 163.304 25.6662 163.304 23.2687V11.2345H156.99V25.1961C156.99 29.8029 160.768 32.9995 165.839 32.9995C168.722 32.9995 170.711 31.6833 172.351 29.6149V32.6234H178.714V32.6704ZM220.075 32.6704V18.9439C220.075 14.2901 216.446 10.7175 211.325 10.7175C208.293 10.7175 206.006 12.3628 204.067 14.5722C202.825 12.2217 199.743 10.7175 197.058 10.7175C194.175 10.7175 192.236 11.7046 190.645 13.914V11.2345H184.332V32.6234H190.645V20.9183C190.645 18.5209 191.441 15.9354 194.871 15.9354C198.251 15.9354 198.997 18.5679 198.997 20.9183V32.6234H205.31V20.9183C205.31 18.5209 206.304 15.9354 209.635 15.9354C212.966 15.9354 213.761 18.5679 213.761 20.9183V32.6234H220.075V32.6704Z" fill="white"/>
<path d="M82.9197 7.80448C85.0063 7.80448 86.6978 6.20495 86.6978 4.23183C86.6978 2.25871 85.0063 0.65918 82.9197 0.65918C80.8331 0.65918 79.1416 2.25871 79.1416 4.23183C79.1416 6.20495 80.8331 7.80448 82.9197 7.80448Z" fill="white"/>
</svg>
