<svg width="24" height="25" viewBox="0 0 24 25" fill="none" xmlns="http://www.w3.org/2000/svg">
<path d="M12.0001 15.2126C10.2798 15.2126 8.87589 13.8087 8.87589 12.0884C8.87589 10.3681 10.2798 8.96415 12.0001 8.96415C13.7204 8.96415 15.1243 10.3681 15.1243 12.0884C15.1243 13.8087 13.7204 15.2126 12.0001 15.2126ZM21.3704 12.0884C21.3704 13.3821 21.3821 14.6641 21.3095 15.9556C21.2368 17.4556 20.8946 18.7868 19.7978 19.8837C18.6986 20.9829 17.3696 21.3227 15.8696 21.3954C14.5759 21.4681 13.2939 21.4563 12.0025 21.4563C10.7087 21.4563 9.42667 21.4681 8.13527 21.3954C6.63527 21.3227 5.30402 20.9806 4.20714 19.8837C3.10792 18.7845 2.76808 17.4556 2.69542 15.9556C2.62277 14.6618 2.63449 13.3798 2.63449 12.0884C2.63449 10.797 2.62277 9.51258 2.69542 8.22118C2.76808 6.72118 3.11027 5.38993 4.20714 4.29305C5.30636 3.19383 6.63527 2.85399 8.13527 2.78133C9.42902 2.70868 10.711 2.7204 12.0025 2.7204C13.2962 2.7204 14.5782 2.70868 15.8696 2.78133C17.3696 2.85399 18.7009 3.19618 19.7978 4.29305C20.897 5.39227 21.2368 6.72118 21.3095 8.22118C21.3845 9.51258 21.3704 10.7946 21.3704 12.0884V12.0884ZM12.0001 7.28133C9.33996 7.28133 7.19308 9.42821 7.19308 12.0884C7.19308 14.7485 9.33996 16.8954 12.0001 16.8954C14.6603 16.8954 16.8071 14.7485 16.8071 12.0884C16.8071 9.42821 14.6603 7.28133 12.0001 7.28133ZM17.004 15.9696C16.3829 15.9696 15.8814 16.4712 15.8814 17.0923C15.8814 17.7134 16.3829 18.2149 17.004 18.2149C17.6251 18.2149 18.1267 17.7134 18.1267 17.0923C18.1269 16.9448 18.0979 16.7987 18.0416 16.6624C17.9852 16.5261 17.9026 16.4023 17.7983 16.298C17.694 16.1937 17.5702 16.111 17.4339 16.0547C17.2976 15.9983 17.1515 15.9694 17.004 15.9696V15.9696Z" fill="white"/>
</svg>
