<svg width="24" height="24" viewBox="0 0 24 24" fill="none" xmlns="http://www.w3.org/2000/svg">
<path d="M11.9306 1.53464C6.16831 1.55596 1.51338 6.24546 1.5347 12.0077C1.55602 17.7699 6.24552 22.4249 12.0078 22.4036C17.77 22.3822 22.4249 17.6927 22.4036 11.9305C22.3823 6.16825 17.6928 1.51332 11.9306 1.53464ZM16.9742 9.38152C16.9816 9.49097 16.9821 9.60509 16.9825 9.71689C16.9951 13.136 14.4057 17.0842 9.64735 17.1018C8.18 17.1072 6.81822 16.6861 5.66958 15.9566C5.87928 15.9791 6.07962 15.9877 6.2939 15.9869C7.50505 15.9824 8.61685 15.5684 9.50167 14.871C8.36498 14.8519 7.40728 14.1102 7.07741 13.0866C7.47591 13.1433 7.83459 13.142 8.24413 13.0357C7.65844 12.9189 7.13123 12.603 6.75207 12.1416C6.3729 11.6802 6.16516 11.1018 6.16415 10.5046L6.16403 10.472C6.50712 10.664 6.9105 10.7813 7.33213 10.7961C6.97687 10.5612 6.68504 10.2423 6.48254 9.86761C6.28004 9.49294 6.17312 9.0741 6.17126 8.64821C6.16947 8.16608 6.29362 7.72542 6.51813 7.3426C7.17068 8.13987 7.9837 8.7909 8.90434 9.25338C9.82498 9.71586 10.8326 9.97944 11.8618 10.027C11.4896 8.26985 12.798 6.84189 14.3771 6.83605C15.1225 6.83329 15.7944 7.14291 16.2691 7.64426C16.8533 7.53262 17.4115 7.31162 17.9088 7.01631C17.7177 7.6156 17.3143 8.12252 16.7775 8.4436C17.299 8.38577 17.8015 8.23951 18.2666 8.03515C17.9168 8.55352 17.4783 9.01398 16.9742 9.38152V9.38152Z" fill="white"/>
</svg>
