<svg width="24" height="25" viewBox="0 0 24 25" fill="none" xmlns="http://www.w3.org/2000/svg">
<path d="M12.001 2.08984C6.47895 2.08984 2.00195 6.56684 2.00195 12.0888C2.00195 17.0788 5.65795 21.2148 10.439 21.9678V14.9798H7.89895V12.0888H10.439V9.88584C10.439 7.37784 11.932 5.99484 14.215 5.99484C15.309 5.99484 16.455 6.18984 16.455 6.18984V8.64884H15.191C13.951 8.64884 13.563 9.42084 13.563 10.2118V12.0868H16.334L15.891 14.9778H13.563V21.9658C18.344 21.2168 22 17.0798 22 12.0888C22 6.56684 17.523 2.08984 12.001 2.08984V2.08984Z" fill="white"/>
</svg>
