<svg width="22" height="23" viewBox="0 0 22 23" fill="none" xmlns="http://www.w3.org/2000/svg">
<g clip-path="url(#clip0_635_3230)">
<path d="M10.9999 0.52832C5.16774 0.52832 0.439941 5.25612 0.439941 11.0883C0.439941 16.9205 5.16774 21.6483 10.9999 21.6483C16.8321 21.6483 21.5599 16.9205 21.5599 11.0883C21.5599 5.25612 16.8321 0.52832 10.9999 0.52832ZM8.41494 15.4652H6.27654V8.58362H8.41494V15.4652ZM7.33254 7.73882C6.65714 7.73882 6.22044 7.26032 6.22044 6.66852C6.22044 6.06462 6.67034 5.60042 7.36004 5.60042C8.04974 5.60042 8.47214 6.06462 8.48534 6.66852C8.48534 7.26032 8.04974 7.73882 7.33254 7.73882ZM16.2249 15.4652H14.0865V11.6515C14.0865 10.7638 13.7763 10.161 13.003 10.161C12.4123 10.161 12.0614 10.5691 11.9063 10.9618C11.8491 11.1015 11.8348 11.2995 11.8348 11.4964V15.4641H9.69534V10.7781C9.69534 9.91902 9.66784 9.20072 9.63924 8.58252H11.4971L11.595 9.53842H11.6379C11.9195 9.08962 12.6092 8.42742 13.7631 8.42742C15.17 8.42742 16.2249 9.37012 16.2249 11.3963V15.4652V15.4652Z" fill="white"/>
</g>
<defs>
<clipPath id="clip0_635_3230">
<rect width="22" height="22" fill="white" transform="translate(0 0.0878906)"/>
</clipPath>
</defs>
</svg>
