<svg width="31" height="30" viewBox="0 0 31 30" fill="none" xmlns="http://www.w3.org/2000/svg">
<path d="M20.6992 9.62904C21.2374 9.09368 21.2374 8.22123 20.6992 7.68587L18.7192 5.70588L18.7221 5.70871C18.198 5.18468 17.2973 4.28391 16.0226 3.01207C15.4221 2.42572 14.4505 2.43139 13.8557 3.02623L2.70085 14.1725C2.55813 14.3143 2.44487 14.4829 2.36757 14.6686C2.29028 14.8543 2.25049 15.0534 2.25049 15.2546C2.25049 15.4557 2.29028 15.6549 2.36757 15.8406C2.44487 16.0263 2.55813 16.1949 2.70085 16.3367L13.8528 27.4801C14.1403 27.7672 14.53 27.9284 14.9363 27.9284C15.3426 27.9284 15.7322 27.7672 16.0198 27.4801L20.6964 22.8063C21.2346 22.271 21.2346 21.3985 20.6964 20.8632C20.4379 20.6059 20.0881 20.4615 19.7234 20.4615C19.3587 20.4615 19.0089 20.6059 18.7504 20.8632L15.2096 24.4096C15.0623 24.5569 14.8329 24.5569 14.6856 24.4096L5.77706 15.5095C5.62977 15.3622 5.62977 15.1328 5.77706 14.9855L14.6828 6.08545C14.6941 6.07412 14.7083 6.06562 14.7196 6.05429C14.8669 5.93815 15.0708 5.94948 15.2068 6.08545L18.7532 9.62904C19.2914 10.1672 20.1639 10.1672 20.6992 9.62904V9.62904ZM11.9833 15.3112C11.9833 16.1091 12.3005 16.8742 12.8652 17.4384C13.4299 18.0025 14.1958 18.3195 14.9944 18.3195C15.7929 18.3195 16.5588 18.0025 17.1235 17.4384C17.6882 16.8742 18.0054 16.1091 18.0054 15.3112C18.0054 14.5134 17.6882 13.7483 17.1235 13.1841C16.5588 12.62 15.7929 12.303 14.9944 12.303C14.1958 12.303 13.4299 12.62 12.8652 13.1841C12.3005 13.7483 11.9833 14.5134 11.9833 15.3112ZM27.1717 14.2179L23.6905 10.7536C23.1523 10.2182 22.2798 10.2182 21.7445 10.7564C21.6165 10.8838 21.515 11.0352 21.4457 11.2019C21.3764 11.3687 21.3408 11.5474 21.3408 11.728C21.3408 11.9086 21.3764 12.0873 21.4457 12.2541C21.515 12.4208 21.6165 12.5722 21.7445 12.6996L24.0955 15.0478C24.2428 15.1951 24.2428 15.4246 24.0955 15.5718L21.7785 17.8861C21.6505 18.0135 21.549 18.1649 21.4797 18.3316C21.4104 18.4983 21.3747 18.6771 21.3747 18.8577C21.3747 19.0382 21.4104 19.217 21.4797 19.3837C21.549 19.5505 21.6505 19.7019 21.7785 19.8293C22.037 20.0865 22.3868 20.2309 22.7515 20.2309C23.1161 20.2309 23.466 20.0865 23.7245 19.8293L27.1746 16.382C27.3168 16.2399 27.4296 16.0711 27.5064 15.8853C27.5833 15.6995 27.6227 15.5004 27.6225 15.2993C27.6222 15.0983 27.5822 14.8993 27.5049 14.7137C27.4276 14.5281 27.3143 14.3596 27.1717 14.2179V14.2179Z" fill="#470F4A"/>
</svg>
