<svg width="27" height="29" viewBox="0 0 27 29" fill="none" xmlns="http://www.w3.org/2000/svg">
<path d="M25.4816 19.7193V9.40609C25.4811 8.95395 25.3618 8.50988 25.1355 8.11844C24.9092 7.72699 24.584 7.40193 24.1924 7.17586L15.1684 2.01925C14.7764 1.79296 14.3318 1.67383 13.8792 1.67383C13.4266 1.67383 12.982 1.79296 12.5901 2.01925L3.56601 7.17586C3.17444 7.40193 2.84921 7.72699 2.62294 8.11844C2.39667 8.50988 2.27732 8.95395 2.27686 9.40609V19.7193C2.27732 20.1714 2.39667 20.6155 2.62294 21.0069C2.84921 21.3984 3.17444 21.7235 3.56601 21.9495L12.5901 27.1061C12.982 27.3324 13.4266 27.4516 13.8792 27.4516C14.3318 27.4516 14.7764 27.3324 15.1684 27.1061L24.1924 21.9495C24.584 21.7235 24.9092 21.3984 25.1355 21.0069C25.3618 20.6155 25.4811 20.1714 25.4816 19.7193Z" stroke="#470F4A" stroke-width="2.5783" stroke-linecap="round" stroke-linejoin="round"/>
<path d="M8.07812 4.52051L13.8793 7.8723L19.6805 4.52051" stroke="#470F4A" stroke-width="2.5783" stroke-linecap="round" stroke-linejoin="round"/>
<path d="M8.07803 24.605V17.9143L2.27686 14.5625" stroke="#470F4A" stroke-width="2.5783" stroke-linecap="round" stroke-linejoin="round"/>
<path d="M25.4816 14.5625L19.6804 17.9143V24.605" stroke="#470F4A" stroke-width="2.5783" stroke-linecap="round" stroke-linejoin="round"/>
<path d="M2.625 8.06543L13.8793 14.5756L25.1336 8.06543" stroke="#470F4A" stroke-width="2.5783" stroke-linecap="round" stroke-linejoin="round"/>
<path d="M13.8792 27.5571V14.5625" stroke="#470F4A" stroke-width="2.5783" stroke-linecap="round" stroke-linejoin="round"/>
</svg>
