<svg width="109" height="24" viewBox="0 0 109 24" fill="none" xmlns="http://www.w3.org/2000/svg">
<path d="M1.55811 10.5C0.729678 10.5 0.0581055 11.1716 0.0581055 12C0.0581055 12.8284 0.729678 13.5 1.55811 13.5V10.5ZM107.619 13.0607C108.205 12.4749 108.205 11.5251 107.619 10.9393L98.0728 1.3934C97.487 0.807611 96.5373 0.807611 95.9515 1.3934C95.3657 1.97919 95.3657 2.92893 95.9515 3.51472L104.437 12L95.9515 20.4853C95.3657 21.0711 95.3657 22.0208 95.9515 22.6066C96.5373 23.1924 97.487 23.1924 98.0728 22.6066L107.619 13.0607ZM1.55811 13.5H106.558V10.5H1.55811V13.5Z" fill="white"/>
</svg>
