<svg width="20" height="23" viewBox="0 0 20 23" fill="none" xmlns="http://www.w3.org/2000/svg">
<g clip-path="url(#clip0_837_1650)">
<path d="M4.66955 10.5286H3.8292C3.29311 10.5286 2.85693 10.0952 2.85693 9.5625C2.85693 9.40066 2.7258 9.26953 2.56396 9.26953C2.40213 9.26953 2.271 9.40066 2.271 9.5625C2.271 10.4183 2.97002 11.1145 3.82924 11.1145H4.66955C4.83139 11.1145 4.96252 10.9834 4.96252 10.8216C4.96252 10.6597 4.83139 10.5286 4.66955 10.5286Z" fill="#7A1F99"/>
<path d="M7.42289 12.6963H4.92008C4.09344 12.6963 3.4209 13.3661 3.4209 14.1895C3.4209 14.3513 3.55203 14.4825 3.71387 14.4825C3.8757 14.4825 4.00684 14.3513 4.00684 14.1895C4.00684 13.6892 4.41648 13.2822 4.92008 13.2822H7.42289C7.58473 13.2822 7.71586 13.1511 7.71586 12.9893C7.71586 12.8274 7.58473 12.6963 7.42289 12.6963Z" fill="#7A1F99"/>
<path d="M9.80992 12.6963H8.59473C8.43289 12.6963 8.30176 12.8274 8.30176 12.9893C8.30176 13.1511 8.43289 13.2822 8.59473 13.2822H9.80992C9.97176 13.2822 10.1029 13.1511 10.1029 12.9893C10.1029 12.8274 9.97172 12.6963 9.80992 12.6963Z" fill="#7A1F99"/>
<path d="M7.74988 7.00391C7.58805 7.00391 7.45691 7.13508 7.45691 7.29688C7.45691 8.13461 6.77137 8.81613 5.92871 8.81613C5.76688 8.81613 5.63574 8.94727 5.63574 9.1091C5.63574 9.27094 5.76688 9.40207 5.92871 9.40207C7.09445 9.40207 8.04285 8.4577 8.04285 7.29688C8.04285 7.13508 7.91172 7.00391 7.74988 7.00391Z" fill="#7A1F99"/>
<path d="M7.20959 2.57492C6.50975 2.53 5.90295 3.06058 5.85756 3.75808C5.84705 3.91957 5.96944 4.05894 6.13088 4.06949C6.13737 4.06992 6.14381 4.07012 6.15022 4.07012C6.30334 4.07012 6.43217 3.95113 6.44229 3.79617C6.46666 3.42086 6.79401 3.13582 7.17194 3.15965C7.33354 3.17047 7.47272 3.04762 7.48311 2.88613C7.49354 2.72465 7.37108 2.58535 7.20959 2.57492Z" fill="#7A1F99"/>
<path d="M6.22461 14.0012C6.06277 14.0012 5.93164 14.1324 5.93164 14.2942C5.93164 14.456 6.06277 14.5872 6.22461 14.5872C6.7084 14.5872 7.10199 14.9781 7.10199 15.4587C7.10199 15.9393 6.7084 16.3303 6.22461 16.3303C6.06277 16.3303 5.93164 16.4615 5.93164 16.6233C5.93164 16.7851 6.06277 16.9163 6.22461 16.9163C7.03148 16.9163 7.68793 16.2624 7.68793 15.4587C7.68793 14.655 7.03148 14.0012 6.22461 14.0012Z" fill="#7A1F99"/>
<path d="M9.22266 7.10254C9.06082 7.10254 8.92969 7.23367 8.92969 7.39551C8.92969 7.55734 9.06082 7.68848 9.22266 7.68848C9.61129 7.68848 9.9275 8.00242 9.9275 8.38836C9.9275 8.77434 9.61129 9.08832 9.22266 9.08832C9.06082 9.08832 8.92969 9.21945 8.92969 9.38129C8.92969 9.54312 9.06082 9.67426 9.22266 9.67426C9.93441 9.67426 10.5134 9.09738 10.5134 8.38836C10.5134 7.67938 9.93441 7.10254 9.22266 7.10254Z" fill="#7A1F99"/>
<path d="M4.06152 5.23926C3.89969 5.23926 3.76855 5.37039 3.76855 5.53223C3.76855 5.69406 3.89969 5.8252 4.06152 5.8252C4.72926 5.8252 5.27246 6.36504 5.27246 7.02863C5.27246 7.69227 4.72926 8.23215 4.06152 8.23215C3.89969 8.23215 3.76855 8.36328 3.76855 8.52512C3.76855 8.68695 3.89969 8.81809 4.06152 8.81809C5.0523 8.81809 5.8584 8.01535 5.8584 7.02863C5.8584 6.04195 5.0523 5.23926 4.06152 5.23926Z" fill="#7A1F99"/>
<path d="M17.8346 5.22656C17.2839 5.22656 16.8359 5.67301 16.8359 6.22176C16.8359 6.77055 17.2839 7.21699 17.8346 7.21699C18.3853 7.21699 18.8333 6.77055 18.8333 6.22176C18.8333 5.67301 18.3853 5.22656 17.8346 5.22656ZM17.8346 6.63109C17.6071 6.63109 17.4219 6.4475 17.4219 6.2218C17.4219 5.99613 17.607 5.81254 17.8346 5.81254C18.0622 5.81254 18.2474 5.99613 18.2474 6.2218C18.2474 6.44746 18.0622 6.63109 17.8346 6.63109Z" fill="#7A1F99"/>
<path d="M18.8131 12.7246C18.2624 12.7246 17.8145 13.1711 17.8145 13.7198C17.8145 14.2686 18.2625 14.715 18.8131 14.715C19.3638 14.715 19.8118 14.2686 19.8118 13.7198C19.8118 13.1711 19.3638 12.7246 18.8131 12.7246ZM18.8131 14.1291C18.5855 14.1291 18.4004 13.9455 18.4004 13.7198C18.4004 13.4942 18.5855 13.3105 18.8131 13.3105C19.0407 13.3105 19.2258 13.4941 19.2258 13.7198C19.2259 13.9455 19.0407 14.1291 18.8131 14.1291Z" fill="#7A1F99"/>
<path d="M18.1987 9.21319C18.0298 9.21323 17.8705 9.25542 17.7308 9.3296L17.1598 8.76131C17.045 8.64717 16.8596 8.64768 16.7455 8.76233C16.6313 8.87702 16.6318 9.06249 16.7465 9.17663L17.3161 9.74346C17.2422 9.88237 17.2001 10.0405 17.2001 10.2084C17.2001 10.7572 17.6481 11.2036 18.1987 11.2036C18.7494 11.2036 19.1974 10.7572 19.1974 10.2084C19.1974 9.65963 18.7494 9.21319 18.1987 9.21319ZM18.1988 10.6177C17.9712 10.6177 17.786 10.4341 17.786 10.2084C17.786 9.9828 17.9712 9.79917 18.1988 9.79917C18.4264 9.79917 18.6115 9.98276 18.6115 10.2084C18.6115 10.4341 18.4264 10.6177 18.1988 10.6177Z" fill="#7A1F99"/>
<path d="M17.5387 15.7825C16.988 15.7825 16.54 16.2289 16.54 16.7777C16.54 17.3265 16.988 17.7729 17.5387 17.7729C18.0894 17.7729 18.5374 17.3265 18.5374 16.7777C18.5374 16.2289 18.0894 15.7825 17.5387 15.7825ZM17.5387 17.187C17.3111 17.187 17.126 17.0034 17.126 16.7777C17.126 16.552 17.3111 16.3684 17.5387 16.3684C17.7663 16.3684 17.9514 16.552 17.9514 16.7777C17.9515 17.0034 17.7663 17.187 17.5387 17.187Z" fill="#7A1F99"/>
<path d="M14.1106 5.59648C14.2968 5.59648 14.519 5.50477 14.651 5.37344L15.7828 4.24719C15.8965 4.29215 16.0203 4.31715 16.1498 4.31715C16.7005 4.31715 17.1485 3.8707 17.1485 3.32191C17.1485 2.77316 16.7005 2.32676 16.1498 2.32676C15.5992 2.32676 15.1512 2.7732 15.1512 3.32191C15.1512 3.52797 15.2144 3.71965 15.3225 3.87863L14.2378 4.95801C14.2148 4.98 14.1422 5.01 14.1106 5.01055H11.6924V3.07121H12.3726C12.4984 3.47742 12.8786 3.77348 13.327 3.77348C13.8777 3.77348 14.3257 3.32703 14.3257 2.77824C14.3257 2.22949 13.8777 1.78305 13.327 1.78305C12.8786 1.78305 12.4984 2.07906 12.3726 2.48527H11.6924V2.4409C11.6924 1.14504 10.6336 0.0908203 9.33209 0.0908203C8.4017 0.0908203 7.56709 0.633086 7.18623 1.46223C7.12768 1.45809 7.06928 1.45598 7.01135 1.45598C5.65869 1.45598 4.55459 2.5359 4.52322 3.87535C4.40643 3.85871 4.2883 3.85031 4.16967 3.85031C2.79732 3.85031 1.68088 4.96195 1.68088 6.32832C1.68088 6.62824 1.7335 6.91844 1.83756 7.19449C0.813184 7.8023 0.187988 8.88809 0.187988 10.0908C0.187988 10.7366 0.371934 11.3643 0.719902 11.9061C1.00654 12.3523 1.39271 12.7238 1.84693 12.9926C1.73779 13.2755 1.68088 13.5784 1.68088 13.8825C1.68088 14.4857 1.90111 15.067 2.301 15.5193C2.40814 15.6405 2.5933 15.6519 2.71455 15.5447C2.8358 15.4375 2.84717 15.2524 2.73998 15.1312C2.43482 14.7861 2.26682 14.3426 2.26682 13.8825C2.26682 13.5729 2.33998 13.2777 2.48404 13.0049C2.656 12.6783 2.92314 12.4025 3.26107 12.2195C3.40338 12.1425 3.45623 11.9647 3.37916 11.8224C3.30213 11.6801 3.12428 11.6271 2.98205 11.7043C2.63209 11.8939 2.34033 12.1597 2.12217 12.4744C1.28443 11.9705 0.773926 11.0794 0.773926 10.0908C0.773926 9.03379 1.35939 8.08621 2.30463 7.6066C2.30463 7.6066 2.85158 7.3023 3.57768 7.3023C3.73951 7.3023 3.87064 7.17117 3.87064 7.00934C3.87064 6.8475 3.73951 6.71637 3.57768 6.71637C3.15205 6.71637 2.74463 6.79508 2.369 6.93832C2.30166 6.74301 2.26689 6.53891 2.26689 6.32836C2.26689 5.28504 3.12049 4.43629 4.16975 4.43629C4.36697 4.43629 4.56209 4.46648 4.74967 4.52605C4.8458 4.55656 4.95084 4.53551 5.02775 4.47027C5.10471 4.40504 5.14268 4.30488 5.12826 4.20504C5.11518 4.1141 5.10854 4.02293 5.10854 3.93402C5.10854 2.89074 5.96217 2.04195 7.01143 2.04195C7.11447 2.04195 7.21978 2.05078 7.32459 2.06801C8.22529 2.21699 8.91428 2.9968 8.91428 3.93402C8.91428 4.09586 9.04541 4.22699 9.20725 4.22699C9.36908 4.22699 9.50021 4.09586 9.50021 3.93402C9.50021 2.83629 8.77932 1.90359 7.78424 1.57914C8.09357 1.02906 8.68146 0.676758 9.33209 0.676758C10.3104 0.676758 11.1064 1.46816 11.1064 2.4409V2.47344H10.5429C10.3811 2.47344 10.25 2.60457 10.25 2.76641C10.25 2.92824 10.3811 3.05938 10.5429 3.05938H11.1064V5.01051H8.73689C8.20076 5.01051 7.76459 4.57715 7.76459 4.04449C7.76459 3.88266 7.63346 3.75152 7.47162 3.75152C7.30978 3.75152 7.17865 3.88266 7.17865 4.04449C7.17865 4.90023 7.87768 5.59645 8.73689 5.59645H11.1064V10.5283H6.35416C6.19232 10.5283 6.06119 10.6595 6.06119 10.8213C6.06119 10.9831 6.19232 11.1143 6.35416 11.1143H11.1064V15.1368H10.2011C9.37447 15.1368 8.70197 15.8066 8.70197 16.6299C8.70197 16.7918 8.83311 16.9229 8.99494 16.9229C9.15678 16.9229 9.28791 16.7918 9.28791 16.6299C9.28791 16.1297 9.69756 15.7227 10.2011 15.7227H11.1064V17.7407C11.1064 17.7868 11.1041 17.8322 11.1006 17.8773H10.5429C10.3811 17.8773 10.25 18.0085 10.25 18.1703C10.25 18.3321 10.3811 18.4633 10.5429 18.4633H10.9501C10.672 19.0766 10.0516 19.5049 9.33209 19.5049C8.68584 19.5049 8.1001 19.1562 7.7892 18.6114C8.14307 18.4958 8.46873 18.3015 8.74311 18.0368C8.85955 17.9245 8.86287 17.739 8.75053 17.6226C8.63818 17.5061 8.45271 17.5028 8.33631 17.6152C8.05654 17.8851 7.70682 18.0593 7.32916 18.1223C7.22268 18.1401 7.11576 18.1492 7.01135 18.1492C5.96209 18.1492 5.10846 17.3004 5.10846 16.2571C5.10846 16.2304 5.11006 16.2027 5.11135 16.1753C5.34783 16.079 5.56998 15.9473 5.76811 15.7819C5.89232 15.6782 5.90893 15.4935 5.80521 15.3693C5.7015 15.245 5.51978 15.2322 5.39256 15.3321C4.80467 15.7939 4.23607 15.7868 4.00861 15.7679C3.84689 15.7542 3.7058 15.8744 3.69236 16.0356C3.67896 16.1968 3.79885 16.3384 3.9601 16.3518C4.1474 16.3673 4.33822 16.3619 4.52377 16.3354C4.56541 17.6657 5.66533 18.7351 7.01139 18.7351C7.07068 18.7351 7.13049 18.7329 7.19049 18.7285C7.57338 19.5522 8.40631 20.0908 9.33209 20.0908C10.6335 20.0908 11.6924 19.0366 11.6924 17.7407V17.0933H13.2454C13.2772 17.0939 13.3498 17.1238 13.3726 17.1458L14.0711 17.8408C13.9766 17.9928 13.9219 18.1718 13.9219 18.3634C13.9219 18.9122 14.3699 19.3586 14.9206 19.3586C15.4713 19.3586 15.9192 18.9122 15.9192 18.3634C15.9192 17.8146 15.4712 17.3682 14.9206 17.3682C14.7758 17.3682 14.6382 17.3993 14.5138 17.4548L13.7859 16.7304C13.6539 16.5991 13.4317 16.5074 13.2455 16.5074H11.6924V14.9413H14.2392C14.3651 15.3475 14.7453 15.6436 15.1937 15.6436C15.7444 15.6436 16.1924 15.1971 16.1924 14.6483C16.1924 14.0995 15.7444 13.6531 15.1937 13.6531C14.7453 13.6531 14.3651 13.9491 14.2392 14.3554H11.6924V12.3929H14.7401C14.8659 12.7991 15.2462 13.0951 15.6946 13.0951C16.2453 13.0951 16.6933 12.6487 16.6933 12.0999C16.6933 11.5511 16.2453 11.1046 15.6946 11.1046C15.2462 11.1046 14.8659 11.4007 14.7401 11.8069H11.6924V9.67453H12.4181C12.5439 10.0807 12.9242 10.3768 13.3726 10.3768C13.9233 10.3768 14.3712 9.93031 14.3712 9.38156C14.3712 8.83277 13.9232 8.38633 13.3726 8.38633C12.9242 8.38633 12.5439 8.68234 12.4181 9.08859H11.6924V7.39793H14.8845C14.9162 7.39852 14.9888 7.42844 15.0117 7.45039L15.6135 8.0493C15.6706 8.10617 15.7454 8.13461 15.8201 8.13461C15.8953 8.13461 15.9706 8.10582 16.0278 8.04828C16.1419 7.93359 16.1415 7.74809 16.0268 7.63395L15.425 7.03504C15.293 6.90371 15.0708 6.81199 14.8846 6.81199H11.6924V5.59648H14.1106ZM16.1498 2.91266C16.3774 2.91266 16.5626 3.09625 16.5626 3.32187C16.5626 3.54754 16.3774 3.73117 16.1498 3.73117C15.9222 3.73117 15.7371 3.54758 15.7371 3.32187C15.7371 3.09625 15.9222 2.91266 16.1498 2.91266ZM13.327 2.36898C13.5546 2.36898 13.7397 2.55258 13.7397 2.77824C13.7397 3.00391 13.5546 3.18754 13.327 3.18754C13.0994 3.18754 12.9143 3.00395 12.9143 2.77824C12.9143 2.55258 13.0994 2.36898 13.327 2.36898ZM14.9206 17.9541C15.1481 17.9541 15.3333 18.1377 15.3333 18.3634C15.3333 18.589 15.1481 18.7727 14.9206 18.7727C14.693 18.7727 14.5078 18.5891 14.5078 18.3634C14.5078 18.1377 14.693 17.9541 14.9206 17.9541ZM15.1937 14.239C15.4213 14.239 15.6065 14.4226 15.6065 14.6483C15.6065 14.874 15.4213 15.0576 15.1937 15.0576C14.9662 15.0576 14.781 14.874 14.781 14.6483C14.781 14.4227 14.9662 14.239 15.1937 14.239ZM15.6946 11.6906C15.9221 11.6906 16.1073 11.8742 16.1073 12.0999C16.1073 12.3255 15.9221 12.5092 15.6946 12.5092C15.467 12.5092 15.2818 12.3256 15.2818 12.0999C15.2818 11.8742 15.467 11.6906 15.6946 11.6906ZM13.3726 8.97227C13.6001 8.97227 13.7853 9.15586 13.7853 9.38156C13.7853 9.60719 13.6001 9.79082 13.3726 9.79082C13.145 9.79082 12.9598 9.60723 12.9598 9.38156C12.9598 9.15586 13.145 8.97227 13.3726 8.97227Z" fill="#7A1F99"/>
</g>
<defs>
<clipPath id="clip0_837_1650">
<rect width="20" height="20" fill="white" transform="translate(0 0.0908203)"/>
</clipPath>
</defs>
</svg>
