<svg width="42" height="8" viewBox="0 0 42 8" fill="none" xmlns="http://www.w3.org/2000/svg">
<path d="M1.15674 3.25781C0.880597 3.25781 0.656739 3.48166 0.656738 3.75781C0.656738 4.03395 0.880595 4.25781 1.15674 4.25781L1.15674 3.25781ZM41.4565 4.11146C41.6517 3.9162 41.6517 3.59962 41.4565 3.40436L38.2745 0.222368C38.0793 0.0271054 37.7627 0.0271045 37.5674 0.222366C37.3721 0.417628 37.3721 0.73421 37.5674 0.929473L40.3958 3.75791L37.5674 6.58633C37.3721 6.78159 37.3721 7.09817 37.5674 7.29343C37.7626 7.4887 38.0792 7.4887 38.2745 7.29344L41.4565 4.11146ZM1.15674 4.25781L41.1029 4.25791L41.1029 3.25791L1.15674 3.25781L1.15674 4.25781Z" fill="#252525"/>
</svg>
